<svg xmlns="http://www.w3.org/2000/svg" width="116.28" height="120.509" viewBox="0 0 116.28 120.509">
  <path id="bell-solid" d="M40.462,0a5.772,5.772,0,0,0-5.778,5.778V9.245A28.9,28.9,0,0,0,11.572,37.557v3.395a34.752,34.752,0,0,1-8.757,23.04l-1.336,1.5a5.78,5.78,0,0,0,4.315,9.624H75.13a5.78,5.78,0,0,0,4.315-9.624l-1.336-1.5a34.717,34.717,0,0,1-8.757-23.04V37.557A28.9,28.9,0,0,0,46.24,9.245V5.778A5.772,5.772,0,0,0,40.462,0Zm8.18,89.072a11.56,11.56,0,0,0,3.377-8.18H28.906a11.568,11.568,0,0,0,19.736,8.18Z" transform="translate(-0.017 40.456) rotate(-30)" fill="#e79796"/>
</svg>
