<svg xmlns="http://www.w3.org/2000/svg" width="63" height="31" viewBox="0 0 63 31">
  <g id="Groupe_49" data-name="Groupe 49" transform="translate(-790 -1557.506)">
    <path id="Tracé_37" data-name="Tracé 37" d="M12,0A12,12,0,1,1,0,12,12,12,0,0,1,12,0Z" transform="translate(809 1561.506)" fill="#ffc98b"/>
    <g id="Groupe_18" data-name="Groupe 18" transform="translate(790 1557.667)">
      <path id="Tracé_36" data-name="Tracé 36" d="M0,0A31,31,0,0,1,31,31,31,31,0,0,1,0,0Z" transform="translate(31 30.84) rotate(180)" fill="#c6c09c"/>
      <path id="Rectangle_20" data-name="Rectangle 20" d="M31,0h0a0,0,0,0,1,0,0V0A31,31,0,0,1,0,31H0a0,0,0,0,1,0,0v0A31,31,0,0,1,31,0Z" transform="translate(32 -0.16)" fill="#c6c09c"/>
    </g>
  </g>
</svg>
