<svg xmlns="http://www.w3.org/2000/svg" width="909" height="169.001" viewBox="0 0 909 169.001">
  <g id="Groupe_122" data-name="Groupe 122" transform="translate(0 0.001)">
    <g id="Groupe_121" data-name="Groupe 121" transform="translate(0 31.001)">
      <path id="Rectangle_56" data-name="Rectangle 56" d="M0,0H14a0,0,0,0,1,0,0V90a7,7,0,0,1-7,7H7a7,7,0,0,1-7-7V0A0,0,0,0,1,0,0Z" transform="translate(55 137.999) rotate(180)" fill="#c6c09c"/>
      <g id="Groupe_113" data-name="Groupe 113">
        <circle id="Ellipse_9" data-name="Ellipse 9" cx="18" cy="18" r="18" transform="translate(30 6.999)" fill="#ffc98b"/>
        <g id="Groupe_18" data-name="Groupe 18" transform="translate(0 0)">
          <path id="Rectangle_17" data-name="Rectangle 17" d="M0,0H0A48,48,0,0,1,48,48v0a0,0,0,0,1,0,0h0A48,48,0,0,1,0,0V0A0,0,0,0,1,0,0Z" transform="translate(48 47.999) rotate(180)" fill="#c6c09c"/>
          <path id="Rectangle_20" data-name="Rectangle 20" d="M47,0h0a0,0,0,0,1,0,0V1A47,47,0,0,1,0,48H0a0,0,0,0,1,0,0V47A47,47,0,0,1,47,0Z" transform="translate(49 -0.001)" fill="#c6c09c"/>
        </g>
      </g>
    </g>
    <g id="Groupe_115" data-name="Groupe 115" transform="translate(408)">
      <path id="Rectangle_56-2" data-name="Rectangle 56" d="M0,0H17a0,0,0,0,1,0,0V110.5A8.5,8.5,0,0,1,8.5,119h0A8.5,8.5,0,0,1,0,110.5V0A0,0,0,0,1,0,0Z" transform="translate(67 169) rotate(180)" fill="#c6c09c"/>
      <g id="Groupe_113-2" data-name="Groupe 113" transform="translate(0 0)">
        <ellipse id="Ellipse_9-2" data-name="Ellipse 9" cx="22" cy="22.5" rx="22" ry="22.5" transform="translate(37 8)" fill="#ffc98b"/>
        <g id="Groupe_18-2" data-name="Groupe 18" transform="translate(0 0)">
          <path id="Rectangle_17-2" data-name="Rectangle 17" d="M0,0H0A59,59,0,0,1,59,59v0a0,0,0,0,1,0,0h0A59,59,0,0,1,0,0V0A0,0,0,0,1,0,0Z" transform="translate(59 58.999) rotate(180)" fill="#c6c09c"/>
          <path id="Rectangle_20-2" data-name="Rectangle 20" d="M58,0h0a0,0,0,0,1,0,0V1A58,58,0,0,1,0,59H0a0,0,0,0,1,0,0V58A58,58,0,0,1,58,0Z" transform="translate(60 -0.001)" fill="#c6c09c"/>
        </g>
      </g>
    </g>
    <g id="Groupe_116" data-name="Groupe 116" transform="translate(838 67)">
      <path id="Rectangle_56-3" data-name="Rectangle 56" d="M0,0H11a0,0,0,0,1,0,0V66.5A5.5,5.5,0,0,1,5.5,72h0A5.5,5.5,0,0,1,0,66.5V0A0,0,0,0,1,0,0Z" transform="translate(41 102) rotate(180)" fill="#c6c09c"/>
      <g id="Groupe_113-3" data-name="Groupe 113" transform="translate(0 0)">
        <circle id="Ellipse_9-3" data-name="Ellipse 9" cx="13.5" cy="13.5" r="13.5" transform="translate(22 5)" fill="#ffc98b"/>
        <g id="Groupe_18-3" data-name="Groupe 18" transform="translate(0 0)">
          <path id="Rectangle_17-3" data-name="Rectangle 17" d="M0,0H0A35,35,0,0,1,35,35v1a0,0,0,0,1,0,0h0A35,35,0,0,1,0,1V0A0,0,0,0,1,0,0Z" transform="translate(35 35.999) rotate(180)" fill="#c6c09c"/>
          <path id="Rectangle_20-3" data-name="Rectangle 20" d="M35,0h0a0,0,0,0,1,0,0V1A35,35,0,0,1,0,36H0a0,0,0,0,1,0,0V35A35,35,0,0,1,35,0Z" transform="translate(36 -0.001)" fill="#c6c09c"/>
        </g>
      </g>
    </g>
    <g id="Groupe_117" data-name="Groupe 117" transform="translate(174 130)">
      <circle id="Ellipse_9-4" data-name="Ellipse 9" cx="13.5" cy="13.5" r="13.5" transform="translate(23 5)" fill="#ffc98b"/>
      <g id="Groupe_18-4" data-name="Groupe 18" transform="translate(0 0)">
        <path id="Rectangle_17-4" data-name="Rectangle 17" d="M0,0H0A36,36,0,0,1,36,36v0a0,0,0,0,1,0,0h0A36,36,0,0,1,0,0V0A0,0,0,0,1,0,0Z" transform="translate(36 35.999) rotate(180)" fill="#c6c09c"/>
        <path id="Rectangle_20-4" data-name="Rectangle 20" d="M36,0h0a0,0,0,0,1,0,0V0A36,36,0,0,1,0,36H0a0,0,0,0,1,0,0v0A36,36,0,0,1,36,0Z" transform="translate(37 -0.001)" fill="#c6c09c"/>
      </g>
    </g>
    <g id="Groupe_118" data-name="Groupe 118" transform="translate(647.955 120.5)">
      <circle id="Ellipse_9-5" data-name="Ellipse 9" cx="12.734" cy="12.734" r="12.734" transform="translate(17.965 14.192)" fill="#ffc98b"/>
      <g id="Groupe_18-5" data-name="Groupe 18" transform="translate(0 0)">
        <path id="Rectangle_17-5" data-name="Rectangle 17" d="M0,0H0A33.959,33.959,0,0,1,33.959,33.959v0a0,0,0,0,1,0,0h0A33.959,33.959,0,0,1,0,0V0A0,0,0,0,1,0,0Z" transform="matrix(-0.966, -0.259, 0.259, -0.966, 32.802, 41.591)" fill="#c6c09c"/>
        <path id="Rectangle_20-5" data-name="Rectangle 20" d="M33.959,0h0a0,0,0,0,1,0,0V0A33.959,33.959,0,0,1,0,33.959H0a0,0,0,0,1,0,0v0A33.959,33.959,0,0,1,33.959,0Z" transform="matrix(0.966, -0.259, 0.259, 0.966, 23.582, 8.789)" fill="#c6c09c"/>
      </g>
    </g>
    <g id="Groupe_119" data-name="Groupe 119" transform="translate(296.455 130)">
      <circle id="Ellipse_9-6" data-name="Ellipse 9" cx="9.826" cy="9.826" r="9.826" transform="translate(13.862 10.95)" fill="#ffc98b"/>
      <g id="Groupe_18-6" data-name="Groupe 18" transform="translate(0)">
        <path id="Rectangle_17-6" data-name="Rectangle 17" d="M0,0H0A26.2,26.2,0,0,1,26.2,26.2v0a0,0,0,0,1,0,0h0A26.2,26.2,0,0,1,0,0V0A0,0,0,0,1,0,0Z" transform="matrix(-0.966, -0.259, 0.259, -0.966, 25.309, 32.091)" fill="#c6c09c"/>
        <path id="Rectangle_20-6" data-name="Rectangle 20" d="M26.2,0h0a0,0,0,0,1,0,0V0A26.2,26.2,0,0,1,0,26.2H0a0,0,0,0,1,0,0v0A26.2,26.2,0,0,1,26.2,0Z" transform="matrix(0.966, -0.259, 0.259, 0.966, 18.196, 6.782)" fill="#c6c09c"/>
      </g>
    </g>
    <g id="Groupe_120" data-name="Groupe 120" transform="translate(725.455 130)">
      <circle id="Ellipse_9-7" data-name="Ellipse 9" cx="9.826" cy="9.826" r="9.826" transform="translate(13.862 10.95)" fill="#ffc98b"/>
      <g id="Groupe_18-7" data-name="Groupe 18" transform="translate(0)">
        <path id="Rectangle_17-7" data-name="Rectangle 17" d="M0,0H0A26.2,26.2,0,0,1,26.2,26.2v0a0,0,0,0,1,0,0h0A26.2,26.2,0,0,1,0,0V0A0,0,0,0,1,0,0Z" transform="matrix(-0.966, -0.259, 0.259, -0.966, 25.309, 32.091)" fill="#c6c09c"/>
        <path id="Rectangle_20-7" data-name="Rectangle 20" d="M26.2,0h0a0,0,0,0,1,0,0V0A26.2,26.2,0,0,1,0,26.2H0a0,0,0,0,1,0,0v0A26.2,26.2,0,0,1,26.2,0Z" transform="matrix(0.966, -0.259, 0.259, 0.966, 18.196, 6.782)" fill="#c6c09c"/>
      </g>
    </g>
  </g>
</svg>
