<svg xmlns="http://www.w3.org/2000/svg" width="90.616" height="80.221" viewBox="0 0 90.616 80.221">
  <path id="link-solid" d="M102.088,62.951c8.472-9.637,8.472-25.244,0-34.881-7.5-8.528-19.312-9.637-27.934-2.627l-.24.188a5.94,5.94,0,0,0-1.11,7.607A4.439,4.439,0,0,0,79.492,34.5l.24-.188A11.006,11.006,0,0,1,95.3,35.779a15.114,15.114,0,0,1,0,19.445L78.472,74.4a11.078,11.078,0,0,1-17.093,0,15.169,15.169,0,0,1-1.289-17.705l.165-.273a5.952,5.952,0,0,0-1.11-7.607,4.448,4.448,0,0,0-6.687,1.262l-.165.273c-6.178,9.791-5.2,23.232,2.294,31.76,8.472,9.637,22.191,9.637,30.663,0ZM24.179,58.96c-8.472,9.637-8.472,25.244,0,34.881,7.5,8.528,19.312,9.637,27.934,2.627l.24-.188a5.94,5.94,0,0,0,1.11-7.607,4.439,4.439,0,0,0-6.687-1.262l-.24.188a11.006,11.006,0,0,1-15.564-1.467,15.137,15.137,0,0,1,0-19.462L47.794,47.514a11.078,11.078,0,0,1,17.093,0,15.193,15.193,0,0,1,1.289,17.722l-.165.273a5.952,5.952,0,0,0,1.11,7.607,4.448,4.448,0,0,0,6.687-1.262l.165-.273c6.178-9.808,5.2-23.249-2.294-31.777-8.472-9.637-22.191-9.637-30.663,0Z" transform="translate(-17.825 -20.845)" fill="#fff"/>
</svg>
