<svg xmlns="http://www.w3.org/2000/svg" width="32.796" height="31.977" viewBox="0 0 32.796 31.977">
  <path id="github" d="M10.969,33.747c0,.132-.152.238-.344.238-.218.02-.37-.086-.37-.238,0-.132.152-.238.344-.238C10.8,33.49,10.969,33.6,10.969,33.747Zm-2.056-.3c-.046.132.086.284.284.324a.31.31,0,0,0,.41-.132c.04-.132-.086-.284-.284-.344a.339.339,0,0,0-.41.152Zm2.923-.112c-.192.046-.324.172-.3.324.02.132.192.218.39.172s.324-.172.3-.3S12.027,33.318,11.836,33.338ZM16.186,8A15.855,15.855,0,0,0,0,24.133,16.577,16.577,0,0,0,11.207,39.95c.846.152,1.144-.37,1.144-.8,0-.41-.02-2.671-.02-4.06,0,0-4.628.992-5.6-1.97,0,0-.754-1.924-1.838-2.42,0,0-1.514-1.038.106-1.018a3.49,3.49,0,0,1,2.552,1.706,3.5,3.5,0,0,0,4.82,1.382,3.675,3.675,0,0,1,1.058-2.228C9.733,30.131,6,29.6,6,23.234a5.011,5.011,0,0,1,1.56-3.895,6.247,6.247,0,0,1,.172-4.49c1.382-.43,4.562,1.785,4.562,1.785a15.62,15.62,0,0,1,8.3,0s3.18-2.222,4.562-1.785a6.244,6.244,0,0,1,.172,4.49,5.14,5.14,0,0,1,1.706,3.895c0,6.381-3.895,6.89-7.591,7.306a3.91,3.91,0,0,1,1.124,3.068c0,2.228-.02,4.986-.02,5.528,0,.43.3.952,1.144.8a16.424,16.424,0,0,0,11.1-15.8C32.8,14.963,25.357,8,16.186,8ZM6.427,30.805c-.086.066-.066.218.046.344.106.106.258.152.344.066.086-.066.066-.218-.046-.344C6.665,30.765,6.513,30.719,6.427,30.805Zm-.714-.536c-.046.086.02.192.152.258a.2.2,0,0,0,.284-.046c.046-.086-.02-.192-.152-.258C5.865,30.184,5.759,30.2,5.713,30.27Zm2.142,2.354c-.106.086-.066.284.086.41.152.152.344.172.43.066.086-.086.046-.284-.086-.41C8.139,32.537,7.941,32.518,7.855,32.623ZM7.1,31.651c-.106.066-.106.238,0,.39s.284.218.37.152a.3.3,0,0,0,0-.41c-.093-.152-.264-.218-.37-.132Z" transform="translate(0 -8)" fill="#c6c09c"/>
</svg>
