<svg xmlns="http://www.w3.org/2000/svg" width="31.977" height="31.977" viewBox="0 0 31.977 31.977">
  <path id="linkedin" d="M29.693,32H2.277A2.294,2.294,0,0,0,0,34.305V61.671a2.294,2.294,0,0,0,2.277,2.305H29.693a2.3,2.3,0,0,0,2.284-2.305V34.305A2.3,2.3,0,0,0,29.693,32ZM9.664,59.408H4.925V44.148H9.671v15.26ZM7.295,42.064a2.748,2.748,0,1,1,2.748-2.748A2.749,2.749,0,0,1,7.295,42.064ZM27.43,59.408H22.691V51.985c0-1.77-.036-4.047-2.462-4.047-2.47,0-2.848,1.927-2.848,3.919v7.552H12.641V44.148h4.547v2.084h.064a4.992,4.992,0,0,1,4.49-2.462c4.8,0,5.689,3.162,5.689,7.273Z" transform="translate(0 -32)" fill="#c6c09c"/>
</svg>
