<svg xmlns="http://www.w3.org/2000/svg" width="62.001" height="61.998" viewBox="0 0 62.001 61.998">
  <path id="Exclusion_3" data-name="Exclusion 3" d="M-10845-2452a30.8,30.8,0,0,1-12.065-2.436,30.907,30.907,0,0,1-9.854-6.643,30.89,30.89,0,0,1-6.643-9.854A30.789,30.789,0,0,1-10876-2483a30.789,30.789,0,0,1,2.437-12.067,30.892,30.892,0,0,1,6.643-9.853,30.9,30.9,0,0,1,9.854-6.643A30.8,30.8,0,0,1-10845-2514a30.818,30.818,0,0,1,12.067,2.436,30.9,30.9,0,0,1,9.854,6.643,30.91,30.91,0,0,1,6.644,9.853A30.789,30.789,0,0,1-10814-2483a30.787,30.787,0,0,1-2.437,12.067,30.908,30.908,0,0,1-6.644,9.854,30.9,30.9,0,0,1-9.854,6.643A30.818,30.818,0,0,1-10845-2452Zm-15.018-43.012h-10.585l7.02,11.988-7.129,12.023h10.514l1.908-4.894a9.716,9.716,0,0,0,.467-2.125h.216a9.991,9.991,0,0,0,.5,2.126l1.872,4.894h10.656l-6.984-12.023,6.911-11.988h-10.4l-1.8,5.041a5.6,5.6,0,0,0-.432,1.763h-.251a5.869,5.869,0,0,0-.4-1.979Zm17.531-.071V-2471h9.108v-6.515h5.363a11.229,11.229,0,0,0,5.219-1.3c2.253-1.358,3.494-4.235,3.494-8.1,0-3.154-.907-5.368-2.773-6.769a8.532,8.532,0,0,0-4.825-1.4Zm11.017,11.843h-1.908v-5.112h2.34c1.839,0,2.555.677,2.555,2.413C-10828.484-2484.073-10829.405-2483.24-10831.471-2483.24Z" transform="translate(10876 2513.999)" fill="#f7dad5"/>
</svg>
