<svg xmlns="http://www.w3.org/2000/svg" width="62.001" height="61.998" viewBox="0 0 62.001 61.998">
  <path id="Exclusion_1" data-name="Exclusion 1" d="M-10845-2452a30.8,30.8,0,0,1-12.065-2.436,30.907,30.907,0,0,1-9.854-6.643,30.89,30.89,0,0,1-6.643-9.854A30.789,30.789,0,0,1-10876-2483a30.789,30.789,0,0,1,2.437-12.067,30.892,30.892,0,0,1,6.643-9.853,30.9,30.9,0,0,1,9.854-6.643A30.8,30.8,0,0,1-10845-2514a30.818,30.818,0,0,1,12.067,2.436,30.9,30.9,0,0,1,9.854,6.643,30.91,30.91,0,0,1,6.644,9.853A30.789,30.789,0,0,1-10814-2483a30.787,30.787,0,0,1-2.437,12.067,30.908,30.908,0,0,1-6.644,9.854,30.9,30.9,0,0,1-9.854,6.643A30.818,30.818,0,0,1-10845-2452Zm12.689-10.511h0c.09.008.179.008.265.008h1.28a3.207,3.207,0,0,0,3.2-3.2v-1.288a6.252,6.252,0,0,0,.041-.649l-.057-12.826h2.563a2.6,2.6,0,0,0,2.561-2.571,2.189,2.189,0,0,0-.879-1.922l-20.449-17.974a2.654,2.654,0,0,0-1.682-.562,2.315,2.315,0,0,0-1.764.641l-20.528,17.895a2.6,2.6,0,0,0-.8,1.922,2.539,2.539,0,0,0,2.561,2.571h2.571v5.571a1.936,1.936,0,0,0-.009.224v8.969a3.206,3.206,0,0,0,3.2,3.2h1.282c.09,0,.179-.007.278-.016h.02c.125.009.237.016.35.016h4.477a3.207,3.207,0,0,0,3.2-3.2v-7.045a2.565,2.565,0,0,1,2.561-2.563h5.126a2.565,2.565,0,0,1,2.561,2.563v7.045a3.207,3.207,0,0,0,3.2,3.2h4.522C-10832.537-2462.5-10832.424-2462.5-10832.312-2462.512Z" transform="translate(10876 2513.999)" fill="#f7dad5"/>
</svg>
