<svg xmlns="http://www.w3.org/2000/svg" width="62" height="62" viewBox="0 0 62 62">
  <g id="Groupe_132" data-name="Groupe 132" transform="translate(-1842 -8381)">
    <g id="Groupe_125" data-name="Groupe 125" transform="translate(0 -29)">
      <path id="Tracé_45" data-name="Tracé 45" d="M31,0A31,31,0,1,1,0,31,31,31,0,0,1,31,0Z" transform="translate(1842 8410)" fill="#f7dad5"/>
    </g>
    <path id="house-solid" d="M46.1,20.457a2.587,2.587,0,0,1-2.562,2.57H40.979l.056,12.827a5.875,5.875,0,0,1-.04.649v1.289a3.2,3.2,0,0,1-3.2,3.2H36.511c-.088,0-.176,0-.264-.008-.112.008-.224.008-.336.008H31.387a3.2,3.2,0,0,1-3.2-3.2V30.746a2.559,2.559,0,0,0-2.562-2.562H20.5a2.559,2.559,0,0,0-2.562,2.562v7.046a3.2,3.2,0,0,1-3.2,3.2H10.257c-.12,0-.24-.008-.36-.016-.1.008-.192.016-.288.016H8.327a3.2,3.2,0,0,1-3.2-3.2V28.824a2.1,2.1,0,0,1,.008-.224V23.028H2.562A2.531,2.531,0,0,1,0,20.457a2.6,2.6,0,0,1,.8-1.922L21.33.641A2.31,2.31,0,0,1,23.092,0a2.66,2.66,0,0,1,1.681.56L45.222,18.536A2.193,2.193,0,0,1,46.1,20.457Z" transform="translate(1849.442 8391.502)" fill="#e79796"/>
  </g>
</svg>
