<svg xmlns="http://www.w3.org/2000/svg" width="62.001" height="61.998" viewBox="0 0 62.001 61.998">
  <path id="Exclusion_2" data-name="Exclusion 2" d="M-10845-2452a30.8,30.8,0,0,1-12.065-2.436,30.908,30.908,0,0,1-9.854-6.643,30.886,30.886,0,0,1-6.643-9.853A30.789,30.789,0,0,1-10876-2483a30.789,30.789,0,0,1,2.437-12.067,30.892,30.892,0,0,1,6.643-9.853,30.907,30.907,0,0,1,9.854-6.643A30.8,30.8,0,0,1-10845-2514a30.818,30.818,0,0,1,12.067,2.436,30.9,30.9,0,0,1,9.854,6.643,30.91,30.91,0,0,1,6.644,9.853A30.789,30.789,0,0,1-10814-2483a30.787,30.787,0,0,1-2.437,12.067,30.9,30.9,0,0,1-6.644,9.853,30.885,30.885,0,0,1-9.854,6.643A30.818,30.818,0,0,1-10845-2452Zm-2.372-13.468h0l-1.105,1.91a4.42,4.42,0,0,0,1.616,6.027,4.4,4.4,0,0,0,2.2.591,4.431,4.431,0,0,0,3.828-2.207l1.105-1.911-7.643-4.411Zm13.859-24.394c-3.6,0-7.316,4.232-9.407,7.857a13.032,13.032,0,0,0-1.676,7.3v.013a13.052,13.052,0,0,1-1.674,7.315l7.643,4.411c.05-.044,5.247-4.675,7.425-8.45a23.9,23.9,0,0,0,3.073-10.009c.227-3.771-.837-6.533-2.994-7.777A4.732,4.732,0,0,0-10833.515-2489.863Zm-28.555,5.719h0l-1.1,1.91a4.383,4.383,0,0,0-.44,3.347,4.385,4.385,0,0,0,2.056,2.68,4.4,4.4,0,0,0,2.2.591,4.431,4.431,0,0,0,3.827-2.2l1.1-1.911-7.643-4.414Zm17.4-22.223h0c-2.655,0-5.278,1.659-7.01,3.05a24.56,24.56,0,0,0-5.684,6.606c-2.165,3.747-3.592,10.589-3.605,10.656l7.643,4.414a13.034,13.034,0,0,1,5.5-5.107l.013-.008a13.056,13.056,0,0,0,5.482-5.1,23.194,23.194,0,0,0,2.688-7.138c.526-3.228-.265-5.476-2.353-6.681a5.269,5.269,0,0,0-2.67-.692Z" transform="translate(10876.001 2513.999)" fill="#f7dad5"/>
</svg>
