<svg xmlns="http://www.w3.org/2000/svg" width="62" height="62" viewBox="0 0 62 62">
  <g id="Groupe_133" data-name="Groupe 133" transform="translate(-1842 -8485)">
    <g id="Groupe_127" data-name="Groupe 127" transform="translate(0 75)">
      <g id="Groupe_125" data-name="Groupe 125">
        <path id="Tracé_45" data-name="Tracé 45" d="M31,0A31,31,0,1,1,0,31,31,31,0,0,1,31,0Z" transform="translate(1842 8410)" fill="#f7dad5"/>
      </g>
    </g>
    <path id="shoe-prints-solid" d="M28.682,0C24.29,0,17.65,2.206,17.65,2.206v8.825a13,13,0,0,1,7.17,2.206,13,13,0,0,0,7.17,2.206c3.889,0,12.135-1.1,12.135-6.619S35.3,0,28.682,0ZM8.825,6.619a4.417,4.417,0,0,0,4.413,4.413h2.206V2.206H13.238A4.417,4.417,0,0,0,8.825,6.619ZM19.857,35.3c6.619,0,15.444-3.309,15.444-8.825s-8.246-6.619-12.135-6.619A13,13,0,0,0,16,22.063a13,13,0,0,1-7.17,2.206v8.825S15.465,35.3,19.857,35.3ZM0,28.682a4.417,4.417,0,0,0,4.413,4.413H6.619V24.269H4.413A4.417,4.417,0,0,0,0,28.682Z" transform="translate(1846.298 8527.128) rotate(-60)" fill="#e79796"/>
  </g>
</svg>
