<svg xmlns="http://www.w3.org/2000/svg" width="62" height="62" viewBox="0 0 62 62">
  <g id="Groupe_131" data-name="Groupe 131" transform="translate(-1842 -8693)">
    <g id="Groupe_125" data-name="Groupe 125" transform="translate(0 283)">
      <path id="Tracé_45" data-name="Tracé 45" d="M31,0A31,31,0,1,1,0,31,31,31,0,0,1,31,0Z" transform="translate(1842 8410)" fill="#f7dad5"/>
    </g>
    <path id="file-solid" d="M0,5.3A5.3,5.3,0,0,1,5.3,0H18.538V10.593a2.645,2.645,0,0,0,2.648,2.648H31.779V37.076a5.3,5.3,0,0,1-5.3,5.3H5.3a5.3,5.3,0,0,1-5.3-5.3Zm31.779,5.3H21.186V0Z" transform="translate(1856.611 8702.814)" fill="#e79796"/>
  </g>
</svg>
